<svg xmlns="http://www.w3.org/2000/svg" viewBox="0 0 512 512">
	<path fill="#5b757b" fill-rule="evenodd" d="M134.7 60.2h94.7c4.2 0 7.6 3.4 7.6 7.6V501c0 4.2-3.4 7.6-7.6 7.6h-94.7c-4.2 0-7.6-3.4-7.6-7.6V67.9c0-4.2 3.4-7.7 7.6-7.7" />
	<path fill="#4d1e00" fill-rule="evenodd" d="M11 13.6h103c5.7 0 10.4 4.7 10.4 10.4v474.2c0 5.7-4.7 10.4-10.4 10.4H11c-5.7 0-10.4-4.7-10.4-10.4V24c0-5.7 4.7-10.4 10.4-10.4" />
	<path fill="#79abff" fill-rule="evenodd" d="m335.5 184.6l106.2-19.1c4.1-.7 8 2 8.8 6l61.3 309.2c.8 4.1-1.8 7.9-5.9 8.7l-106.2 19.1c-4.1.7-8-2-8.8-6l-61.3-309.2c-.8-4.1 1.9-8 5.9-8.7" />
	<path fill="#0c13ba" fill-rule="evenodd" stroke="#000" stroke-width="1.126" d="m404.5 337.7l10.3-22.3l17.1 17.7l-27.5-160.4l-27.3 4.7z" />
	<path fill="#d6b865" fill-rule="evenodd" d="M298.3 3.4h-1.4l-59 7.6c-3.8.5-6.5 4-6.1 7.8l62 483.6c.5 3.8 4 6.5 7.8 6.1l59-7.6c3.8-.5 6.5-4 6.1-7.8l-62-483.6c-.5-3.3-3.2-5.8-6.4-6.1" />
</svg>
