<svg xmlns="http://www.w3.org/2000/svg" viewBox="0 0 48 48">
	<g fill="none">
		<path fill="#25b7d3" d="M24 47.998c13.255 0 24-10.745 24-24C48 10.746 37.255 0 24 0S0 10.745 0 23.999s10.745 23.999 24 23.999" />
		<path fill="#f0f1f1" d="M37.964 24.871a6.11 6.11 0 0 0-3.83-5.665c-1.78-4.349-4.652-6.116-8.17-6.116a8.5 8.5 0 0 0-7.58 4.642c-2.236-.953-4.756.629-4.85 3.078a5.234 5.234 0 0 0 1.739 10.17h17.455s5.236-.971 5.236-6.109" />
		<path fill="#fff" d="M25.964 13.09a8.5 8.5 0 0 0-7.58 4.642a3.488 3.488 0 0 0-4.85 3.078a5.23 5.23 0 0 0-3.497 4.934a5.234 5.234 0 0 0 4.804 5.214l16.187-16.186c-1.453-1.16-3.163-1.682-5.064-1.682" />
		<path fill="#17b198" d="M28.32 23.236a.58.58 0 0 0-.531-.355H26.3v-4.027a.575.575 0 0 0-.575-.575h-3.451a.575.575 0 0 0-.575.575v4.027h-1.488a.575.575 0 0 0-.407.982l3.777 3.458a.575.575 0 0 0 .814 0l3.8-3.458a.58.58 0 0 0 .124-.627" />
	</g>
</svg>
